<?xml version="1.0" standalone="no"?><!DOCTYPE svg PUBLIC "-//W3C//DTD SVG 1.1//EN" "http://www.w3.org/Graphics/SVG/1.1/DTD/svg11.dtd"><svg t="1722065927305" class="icon" viewBox="0 0 1024 1024" version="1.1" xmlns="http://www.w3.org/2000/svg" p-id="13848" width="256" height="256" xmlns:xlink="http://www.w3.org/1999/xlink"><path d="M1002.666667 149.333333v810.666667a42.794667 42.794667 0 0 1-42.666667 42.666667H64a42.794667 42.794667 0 0 1-42.666667-42.666667V149.333333z" fill="#E4E4E4" p-id="13849"></path><path d="M1002.666667 64v85.333333H21.333333V64a42.794667 42.794667 0 0 1 42.666667-42.666667h896a42.794667 42.794667 0 0 1 42.666667 42.666667z" fill="#0091FF" p-id="13850"></path><path d="M981.333333 149.333333v790.4A41.344 41.344 0 0 1 940.522667 981.333333H83.477333A41.344 41.344 0 0 1 42.666667 939.733333V149.333333H21.333333v810.666667a42.794667 42.794667 0 0 0 42.666667 42.666667h896a42.794667 42.794667 0 0 0 42.666667-42.666667V149.333333z" fill="#595959" p-id="13851"></path><path d="M960 21.333333H64a42.794667 42.794667 0 0 0-42.666667 42.666667v85.333333h21.333334V78.229333A38.570667 38.570667 0 0 1 83.477333 42.666667h857.045334A38.570667 38.570667 0 0 1 981.333333 78.229333V149.333333h21.333334V64a42.794667 42.794667 0 0 0-42.666667-42.666667z" fill="#004063" p-id="13852"></path><path d="M1002.666667 852.8V149.333333H183.936A852.608 852.608 0 0 0 1002.666667 852.8z" fill="#FCFCFC" p-id="13853"></path><path d="M1002.666667 149.333333V64a42.794667 42.794667 0 0 0-42.666667-42.666667H171.2a856.768 856.768 0 0 0 12.8 128z" fill="#00A6FF" p-id="13854"></path><path d="M981.333333 852.266667c7.061333 0.341333 14.229333 0.362667 21.333334 0.533333V149.333333h-21.333334z" fill="#848484" p-id="13855"></path><path d="M940.522667 42.666667A38.570667 38.570667 0 0 1 981.333333 78.229333V149.333333h21.333334V64a42.794667 42.794667 0 0 0-42.666667-42.666667H171.2c0.170667 7.104 0.192 14.272 0.533333 21.333334z" fill="#095D96" p-id="13856"></path><path d="M106.666667 234.666667h384v682.666666H106.666667z" fill="#EBF5FF" p-id="13857"></path><path d="M768 426.666667l64-64 85.333333 85.333333v85.333333H576v-42.666666l128-128 64 64z" fill="#FFB13B" p-id="13858"></path><path d="M917.333333 234.666667v213.333333l-85.333333-85.333333-64 64-64-64-128 128V234.666667h341.333333z" fill="#00A6FF" p-id="13859"></path><path d="M768 298.666667m21.333333 0l42.666667 0q21.333333 0 21.333333 21.333333l0 0q0 21.333333-21.333333 21.333333l-42.666667 0q-21.333333 0-21.333333-21.333333l0 0q0-21.333333 21.333333-21.333333Z" fill="#EBF5FF" p-id="13860"></path><path d="M618.666667 256m21.333333 0l42.666667 0q21.333333 0 21.333333 21.333333l0 0q0 21.333333-21.333333 21.333334l-42.666667 0q-21.333333 0-21.333333-21.333334l0 0q0-21.333333 21.333333-21.333333Z" fill="#EBF5FF" p-id="13861"></path><path d="M576 618.666667h341.333333v298.666666H576z" fill="#00A6FF" p-id="13862"></path><path d="M746.666667 768m-85.333334 0a85.333333 85.333333 0 1 0 170.666667 0 85.333333 85.333333 0 1 0-170.666667 0Z" fill="#EBF5FF" p-id="13863"></path><path d="M981.333333 960a21.333333 21.333333 0 0 1-21.333333 21.333333H64a21.333333 21.333333 0 0 1-21.333333-21.333333V256H0v704a64 64 0 0 0 64 64h896a64 64 0 0 0 64-64v-64h-42.666667zM981.333333 810.666667h42.666667v42.666666h-42.666667zM960 0H64a64 64 0 0 0-64 64v149.333333h42.666667V170.666667h938.666666v597.333333h42.666667V64a64 64 0 0 0-64-64zM42.666667 128V64a21.333333 21.333333 0 0 1 21.333333-21.333333h896a21.333333 21.333333 0 0 1 21.333333 21.333333v64z" p-id="13864"></path><path d="M85.333333 64h42.666667v42.666667H85.333333zM170.666667 64h42.666666v42.666667H170.666667zM256 64h42.666667v42.666667h-42.666667zM896 64h42.666667v42.666667h-42.666667zM490.666667 938.666667a21.333333 21.333333 0 0 0 21.333333-21.333334V234.666667a21.333333 21.333333 0 0 0-21.333333-21.333334H106.666667a21.333333 21.333333 0 0 0-21.333334 21.333334v682.666666a21.333333 21.333333 0 0 0 21.333334 21.333334zM128 256h341.333333v640H128zM576 554.666667h341.333333a21.333333 21.333333 0 0 0 21.333334-21.333334V234.666667a21.333333 21.333333 0 0 0-21.333334-21.333334H576a21.333333 21.333333 0 0 0-21.333333 21.333334v298.666666a21.333333 21.333333 0 0 0 21.333333 21.333334z m21.333333-42.666667v-12.501333l106.666667-106.666667 112.917333 112.917333 30.165334-30.165333L798.165333 426.666667 832 392.832l64 64V512z m298.666667-256v140.501333l-48.917333-48.917333a21.333333 21.333333 0 0 0-30.165334 0L768 396.501333l-48.917333-48.917333a21.333333 21.333333 0 0 0-30.165334 0L597.333333 439.168V256zM554.666667 917.333333a21.333333 21.333333 0 0 0 21.333333 21.333334h341.333333a21.333333 21.333333 0 0 0 21.333334-21.333334V618.666667a21.333333 21.333333 0 0 0-21.333334-21.333334H576a21.333333 21.333333 0 0 0-21.333333 21.333334z m42.666666-277.333333h298.666667v256H597.333333z" p-id="13865"></path><path d="M746.666667 661.333333a106.666667 106.666667 0 1 0 106.666666 106.666667 106.794667 106.794667 0 0 0-106.666666-106.666667z m0 170.666667a64 64 0 1 1 64-64 64 64 0 0 1-64 64z" p-id="13866"></path><path d="M768 725.333333h-42.666667v21.333334h-21.333333v42.666666h21.333333v21.333334h42.666667v-21.333334h21.333333v-42.666666h-21.333333v-21.333334zM170.666667 469.333333h256v42.666667H170.666667zM170.666667 554.666667h256v42.666666H170.666667zM170.666667 640h256v42.666667H170.666667zM170.666667 725.333333h256v42.666667H170.666667zM170.666667 810.666667h256v42.666666H170.666667zM213.333333 426.666667h42.666667v21.333333h42.666667v-42.666667a21.333333 21.333333 0 0 0-2.24-9.536l-42.666667-85.333333a22.229333 22.229333 0 0 0-38.186667 0l-42.666666 85.333333A21.333333 21.333333 0 0 0 170.666667 405.333333v42.666667h42.666666z m29.482667-42.666667h-16.298667l8.149334-16.298667zM320 384h106.666667v42.666667h-106.666667zM320 298.666667h106.666667v42.666666h-106.666667z" p-id="13867"></path></svg>